<?xml version="1.0" encoding="UTF-8"?><svg id="a" xmlns="http://www.w3.org/2000/svg" viewBox="0 0 256 256"><defs><style>.b{fill:#fdf7ef;}.c{fill:none;stroke:#024ba1;stroke-width:8.65px;}.d{fill:#025dca;}</style></defs><rect class="d" x="4.32" y="4.32" width="247.35" height="247.35" rx="123.68" ry="123.68"/><rect class="c" x="4.32" y="4.32" width="247.35" height="247.35" rx="123.68" ry="123.68"/><path class="b" d="M122.81,112.58c-4.28,0-7.36-1.08-9.25-3.25-1.89-2.22-2.83-5.14-2.83-8.75,0-8,5.97-12,17.91-12,11.22,0,22.24,3.54,29.15,7l-4.32,4.32c-3.46-2.59-15.05-5.33-24.83-5.33-4.78,0-8,.53-9.67,1.58-1.61,1.06-2.42,2.53-2.42,4.42s.44,3.36,1.33,4.42c.89,1.06,2.53,1.58,4.92,1.58h10.33c7.5,0,14.25,1.28,20.25,3.83,6.06,2.56,11.03,6.06,14.91,10.5,3.89,4.39,6.86,9.47,8.92,15.25,2.06,5.72,3.08,11.86,3.08,18.41,0,5.33-.75,10.39-2.25,15.17-1.5,4.78-3.78,9.17-6.83,13.16-3,4-6.64,7.47-10.91,10.42-4.22,2.89-9.28,5.14-15.16,6.75-5.83,1.67-12.17,2.5-19,2.5-10.72,0-20.78-1.64-30.16-4.92-9.33-3.22-17.11-8.47-23.33-14.31l3.46-3.46c5.67,5.11,14.12,9.68,22.62,12.52,8.55,2.78,17.69,4.17,27.41,4.17,7.61,0,14.47-1.08,20.58-3.25,6.17-2.22,11.22-5.25,15.17-9.08,4-3.83,7.05-8.28,9.17-13.33,2.17-5.05,3.25-10.5,3.25-16.33,0-7.72-1.56-14.69-4.67-20.91-3.11-6.28-7.86-11.36-14.25-15.25-6.33-3.89-13.83-5.83-22.5-5.83h-10.08ZM132.31,118.58c11.28,0,20.08,3.44,26.41,10.33,6.39,6.89,9.58,15.44,9.58,25.66s-3.69,19-11.08,25.83c-7.39,6.78-17.75,10.16-31.08,10.16-8.89,0-17.19-1.22-24.91-3.67-7.72-2.44-15.69-6.9-20.8-11.34l4.32-4.32c4.56,3.72,12.17,8.19,19.06,10.25,6.94,2.06,14.39,3.08,22.33,3.08,11.72,0,20.67-2.81,26.83-8.42,6.22-5.61,9.33-12.8,9.33-21.58s-2.61-15.83-7.83-21.5c-5.17-5.67-12.58-8.5-22.25-8.5h-9.42c-8.11,0-14.19-2.22-18.25-6.67-4.06-4.44-6.08-10.22-6.08-17.33s2.5-12.89,7.5-17.33c5.06-4.44,12.61-6.67,22.66-6.67,7.05,0,13.61.83,19.66,2.5,6.05,1.61,13.8,5.21,17.75,8.26l-4.32,4.32c-6.94-4.78-20.09-9.09-33.09-9.09-8.39,0-14.53,1.67-18.41,5-3.83,3.28-5.75,7.61-5.75,13s1.42,9.8,4.25,13.08c2.89,3.28,7.58,4.92,14.08,4.92h9.5ZM131.98,130.58c8.11,0,14.19,2.25,18.25,6.75,4.06,4.5,6.08,10.25,6.08,17.25s-2.53,12.89-7.58,17.33c-5,4.44-12.53,6.67-22.58,6.67-7.05,0-13.64-.81-19.75-2.42-6.06-1.67-14.23-5.32-18.18-8.38l4.32-4.32c6.94,4.78,20.55,9.12,33.6,9.12,8.39,0,14.5-1.64,18.33-4.92,3.89-3.33,5.83-7.69,5.83-13.08s-1.44-9.72-4.33-13c-2.89-3.33-7.58-5-14.08-5h-9.08c-11.39,0-20.3-3.39-26.75-10.16-6.39-6.83-9.58-15.44-9.58-25.83s3.69-18.97,11.08-25.75c7.39-6.83,17.75-10.25,31.08-10.25,8.89,0,17.16,1.22,24.83,3.67,7.72,2.44,16.12,6,21.23,10.45l-4.32,4.32c-4.56-3.72-12.6-7.3-19.49-9.35-6.89-2.06-14.3-3.08-22.25-3.08-11.72,0-20.69,2.81-26.91,8.42-6.17,5.61-9.25,12.8-9.25,21.58s2.61,15.92,7.83,21.58c5.22,5.61,12.72,8.42,22.5,8.42h9.17ZM131.98,142.58c4.28,0,7.36,1.11,9.25,3.33,1.89,2.22,2.83,5.11,2.83,8.66,0,8-5.97,12-17.92,12-11.28,0-24.48-3.25-30.14-6.58l4.32-4.32c3.89,1.78,15.99,4.9,25.82,4.9,4.78,0,7.97-.53,9.58-1.58,1.67-1.05,2.5-2.53,2.5-4.42s-.47-3.28-1.42-4.33c-.89-1.11-2.56-1.67-5-1.67h-9c-7.67,0-14.61-1.25-20.83-3.75-6.17-2.5-11.25-5.94-15.25-10.33-3.94-4.39-6.97-9.47-9.08-15.25s-3.17-12-3.17-18.66c0-5.33.75-10.39,2.25-15.17,1.5-4.78,3.75-9.17,6.75-13.17,3.06-4,6.69-7.44,10.92-10.33,4.28-2.94,9.33-5.22,15.16-6.83,5.89-1.67,12.25-2.5,19.08-2.5,10.72,0,20.75,1.64,30.08,4.92,9.33,3.22,17.54,7.58,23.76,13.41l-4.33,4.32c-5.67-5.11-13.69-9.62-22.19-12.4-8.5-2.83-17.61-4.25-27.33-4.25-7.61,0-14.5,1.11-20.66,3.33-6.11,2.17-11.17,5.17-15.16,9-3.94,3.83-7,8.28-9.17,13.33-2.11,5.06-3.17,10.5-3.17,16.33,0,7.83,1.58,14.89,4.75,21.16,3.17,6.28,8,11.33,14.5,15.16,6.5,3.78,14.19,5.67,23.08,5.67h9.17ZM138.23,201.62l-2.95.42-3.05.3v19.06h6v-19.78ZM114.23,221.4h6v-19l-2.91-.21-3.09-.32v19.54ZM138.23,34.59h-6v18.04l2.69.13,3.31.29v-18.45ZM114.23,53.96l2.72-.49,3.28-.44v-18.44h-6v19.37Z"/></svg>