<svg width="32" height="32" viewBox="0 0 32 32" fill="none" xmlns="http://www.w3.org/2000/svg">
<path d="M0 16C0 7.16344 7.16344 0 16 0V0C24.8366 0 32 7.16344 32 16V16C32 24.8366 24.8366 32 16 32V32C7.16344 32 0 24.8366 0 16V16Z" fill="white"/>
<g clip-path="url(#clip0_828_304687)">
<path d="M16 28C22.6274 28 28 22.6274 28 16C28 9.37258 22.6274 4 16 4C9.37258 4 4 9.37258 4 16C4 22.6274 9.37258 28 16 28Z" fill="white"/>
<path d="M6.70021 19.024C6.38341 18.0472 6.22021 17.0272 6.22021 16L6.29221 15.9448L15.7242 15.964L16.0002 16L6.70021 19.024Z" fill="url(#paint0_radial_828_304687)"/>
<path d="M19.0218 25.3C17.553 25.7776 15.9954 25.9 14.469 25.6576L14.397 25.5472L15.9666 16.1248L15.9978 16L19.0194 25.3H19.0218Z" fill="url(#paint1_radial_828_304687)"/>
<path d="M25.78 16C25.78 17.0272 25.6192 18.0448 25.3024 19.0216H25.0912L16.0528 16.036L16.0024 16H25.7824L25.78 16Z" fill="url(#paint2_radial_828_304687)"/>
<path d="M8.08984 10.2518C8.38984 9.83665 8.72344 9.44785 9.08584 9.08545L9.16744 9.10945L15.9546 15.923L16.0002 15.9998L8.08984 10.2518Z" fill="url(#paint3_radial_828_304687)"/>
<path d="M9.08594 9.08549C10.5451 7.62629 12.4315 6.66389 14.4715 6.34229L14.5147 6.41429L16.0003 15.8439V15.9999L9.08594 9.08549Z" fill="url(#paint4_radial_828_304687)"/>
<path d="M14.4692 6.34235C15.9932 6.09995 17.5532 6.22235 19.022 6.69995L16.0004 15.9999L14.4692 6.34235Z" fill="url(#paint5_radial_828_304687)"/>
<path d="M6.22021 16.0001C6.22021 14.9729 6.38101 13.9553 6.69781 12.9785L15.9978 16.0001H6.22021Z" fill="url(#paint6_radial_828_304687)"/>
<path d="M21.748 8.08936C23.4184 9.30376 24.6616 11.015 25.3 12.9782L16 15.9998L21.748 8.08936Z" fill="url(#paint7_radial_828_304687)"/>
<path d="M10.2522 23.9104C9.42184 23.308 8.69224 22.576 8.08984 21.748L16.0002 16L10.2522 23.9104Z" fill="url(#paint8_radial_828_304687)"/>
<path d="M14.4713 25.6576C13.9649 25.5784 13.4657 25.4584 12.9785 25.3L16.0001 16L14.4713 25.6576Z" fill="url(#paint9_radial_828_304687)"/>
<path d="M25.3 19.0216C24.6616 20.9848 23.4184 22.6984 21.748 23.9104L16 16L25.3 19.0216Z" fill="url(#paint10_radial_828_304687)"/>
</g>
<path fill-rule="evenodd" clip-rule="evenodd" d="M11.8545 3.38381C13.345 2.89389 14.938 2.66989 16.5159 2.73037C18.0941 2.79085 19.6577 3.13613 21.1127 3.74413C22.5681 4.35213 23.9149 5.22317 25.0673 6.29773C26.5914 7.71949 27.7748 9.49773 28.4845 11.4868C29.1946 13.4763 29.4311 15.6766 29.1572 17.7713C28.8836 19.866 28.0996 21.8555 26.9137 23.5662C25.7277 25.2769 24.1396 26.7086 22.2743 27.7006C20.409 28.6923 18.266 29.244 16.1537 29.276C14.0413 29.308 11.9594 28.8206 10.0948 27.8952C8.23047 26.9697 6.58311 25.6065 5.33223 23.9038C4.08135 22.2011 3.22695 20.1588 2.88775 18.075C2.54855 15.9908 2.72455 13.8648 3.37447 11.8814C3.86567 10.3819 4.62791 8.96429 5.60455 7.73581H4.12007V5.28205H9.93671V10.7137H7.48295V9.22957C6.68295 10.2356 6.05831 11.3969 5.65607 12.6257C5.12391 14.2513 4.98055 15.9953 5.25607 17.6971C5.59847 19.8139 6.58855 21.8651 8.06631 23.4459C9.83399 25.3364 12.2993 26.5544 14.8657 26.8209C17.4317 27.0875 20.0989 26.403 22.217 24.9288C24.3351 23.4545 25.9047 21.1905 26.5418 18.69C27.1789 16.1896 26.8836 13.4526 25.7348 11.1422C24.586 8.83181 22.5834 6.94861 20.1889 5.95917C17.7943 4.96941 15.0074 4.87405 12.6036 5.66381L11.8545 3.38381Z" fill="#0657F9"/>
<defs>
<radialGradient id="paint0_radial_828_304687" cx="0" cy="0" r="1" gradientUnits="userSpaceOnUse" gradientTransform="translate(16.2016 16.1355) rotate(180) scale(13.1294)">
<stop stop-color="#6D28FF"/>
<stop offset="1" stop-color="#F7A7F9"/>
</radialGradient>
<radialGradient id="paint1_radial_828_304687" cx="0" cy="0" r="1" gradientUnits="userSpaceOnUse" gradientTransform="translate(16.0704 16.3833) rotate(90) scale(10.0898)">
<stop stop-color="#FFCD6B"/>
<stop offset="1" stop-color="#EB5EDF"/>
</radialGradient>
<radialGradient id="paint2_radial_828_304687" cx="0" cy="0" r="1" gradientUnits="userSpaceOnUse" gradientTransform="translate(16 16) scale(10.0056 10.0056)">
<stop stop-color="#A273FF"/>
<stop offset="0.5" stop-color="#9FAEFF"/>
<stop offset="1" stop-color="#AAF2E1"/>
</radialGradient>
<radialGradient id="paint3_radial_828_304687" cx="0" cy="0" r="1" gradientUnits="userSpaceOnUse" gradientTransform="translate(16.0002 15.9975) scale(10.7136)">
<stop stop-color="#FFD2B9"/>
<stop offset="0.3" stop-color="#C99BED"/>
<stop offset="1" stop-color="#0075FF"/>
</radialGradient>
<radialGradient id="paint4_radial_828_304687" cx="0" cy="0" r="1" gradientUnits="userSpaceOnUse" gradientTransform="translate(16.0311 16.3719) rotate(-99) scale(10.0939)">
<stop stop-color="#F7A7F9"/>
<stop offset="1" stop-color="#00DDFB"/>
</radialGradient>
<radialGradient id="paint5_radial_828_304687" cx="0" cy="0" r="1" gradientUnits="userSpaceOnUse" gradientTransform="translate(15.7313 16.0386) rotate(-90) scale(10.0817)">
<stop stop-color="#A273FF"/>
<stop offset="0.5" stop-color="#9FAEFF"/>
<stop offset="1" stop-color="#AAF2E1"/>
</radialGradient>
<radialGradient id="paint6_radial_828_304687" cx="0" cy="0" r="1" gradientUnits="userSpaceOnUse" gradientTransform="translate(15.9929 15.9926) rotate(180) scale(10.1021)">
<stop stop-color="#FFF3D0"/>
<stop offset="1" stop-color="#FFC044"/>
</radialGradient>
<radialGradient id="paint7_radial_828_304687" cx="0" cy="0" r="1" gradientUnits="userSpaceOnUse" gradientTransform="translate(16.0702 16.3831) rotate(90) scale(10.0898)">
<stop stop-color="#FFCD6B"/>
<stop offset="1" stop-color="#EB5EDF"/>
</radialGradient>
<radialGradient id="paint8_radial_828_304687" cx="0" cy="0" r="1" gradientUnits="userSpaceOnUse" gradientTransform="translate(15.9211 15.754) rotate(114.2) scale(10.8038 10.8038)">
<stop stop-color="#FFD2B9"/>
<stop offset="0.3" stop-color="#C99BED"/>
<stop offset="1" stop-color="#0075FF"/>
</radialGradient>
<radialGradient id="paint9_radial_828_304687" cx="0" cy="0" r="1" gradientUnits="userSpaceOnUse" gradientTransform="translate(16.5323 16.0671) rotate(90) scale(10.1143)">
<stop stop-color="#D4FAFF"/>
<stop offset="1" stop-color="#00DDFB"/>
</radialGradient>
<radialGradient id="paint10_radial_828_304687" cx="0" cy="0" r="1" gradientUnits="userSpaceOnUse" gradientTransform="translate(16.0024 16.0012) rotate(36) scale(10.0535)">
<stop stop-color="#0075FF"/>
<stop offset="1" stop-color="#00DDFB"/>
</radialGradient>
<clipPath id="clip0_828_304687">
<rect width="24" height="24" fill="white" transform="translate(4 4)"/>
</clipPath>
</defs>
</svg>
