<svg width="32" height="32" viewBox="0 0 32 32" fill="none" xmlns="http://www.w3.org/2000/svg">
<path d="M32 16C32 24.8366 24.8366 32 16 32C7.16344 32 0 24.8366 0 16C0 7.16344 7.16344 0 16 0C24.8366 0 32 7.16344 32 16Z" fill="#5814FB"/>
<path d="M8.12054 7.22323L9.37218 5.9516C10.0605 5.25224 10.6293 4.68 10.6359 4.68C10.6426 4.68 11.8471 5.89335 13.3125 7.37634C14.7779 8.85933 15.9915 10.0727 16.0092 10.0727C16.027 10.0727 17.2388 8.85976 18.7021 7.37726L21.3628 4.68184L23.8817 7.23827L17.7883 13.4279V17.9252H14.2288V13.4279L8.12054 7.22323Z" fill="white"/>
<path d="M7.43994 18.7443L8.69158 17.4727C9.37995 16.7733 9.94865 16.2011 9.95535 16.2011C9.96201 16.2011 11.8459 18.0923 13.3113 19.5753C14.7768 21.0583 15.9903 22.2716 16.008 22.2716C16.0258 22.2716 17.2376 21.0587 18.701 19.5762L22.0411 16.2029L24.5599 18.7593L20.8338 22.532L16.035 27.32L7.43994 18.7443Z" fill="white"/>
</svg>
