<?xml version="1.0" encoding="UTF-8"?><svg id="a" xmlns="http://www.w3.org/2000/svg" viewBox="0 0 32 32"><defs><style>.b{fill:#fff;}.c{fill:#f7931a;}.d{fill:#5a5564;}</style></defs><circle class="b" cx="16" cy="16" r="15.5"/><path class="c" d="M21.87,12.23c-.2-2.08-1.99-2.78-4.26-2.99v-2.86h-1.75v2.81h-1.4v-2.81h-1.74v2.88h-3.56v1.88s1.3-.02,1.28,0c.49-.05.93.29,1,.77v7.9c-.01.17-.09.32-.21.43-.12.11-.29.17-.45.15.02.02-1.28,0-1.28,0l-.33,2.1h3.53v2.93h1.75v-2.89h1.4v2.87h1.76v-2.9c2.96-.18,5.03-.91,5.29-3.69.21-2.23-.84-3.23-2.52-3.63,1.02-.5,1.65-1.43,1.51-2.95ZM19.42,18.47c0,2.18-3.74,1.93-4.93,1.93v-3.87c1.19,0,4.93-.34,4.93,1.94ZM18.6,13.02c0,1.99-3.12,1.75-4.11,1.75v-3.52c.99,0,4.11-.31,4.11,1.76Z"/><path d="M16,0c8.84,0,16,7.16,16,16,0,4.24-1.68,8.32-4.69,11.32-3,3-7.07,4.69-11.32,4.69C7.16,32,0,24.83,0,16,0,7.16,7.16,0,16,0ZM16,1.25c-8.14,0-14.74,6.61-14.73,14.75,0,8.14,6.6,14.74,14.74,14.74s14.74-6.6,14.74-14.74c0-3.91-1.55-7.67-4.32-10.43S19.91,1.24,16,1.25Z"/><path class="d" d="M26.03,6.77l-.87.87c4.32,4.72,4.32,11.95,0,16.67l.87.87c4.8-5.21,4.8-13.23,0-18.44v.02ZM7.68,6.85c4.72-4.32,11.95-4.32,16.67,0l.87-.87C20.02,1.17,11.99,1.17,6.78,5.98l.89.87ZM6.86,24.33c-4.31-4.72-4.31-11.95,0-16.67l-.87-.87c-4.8,5.21-4.8,13.23,0,18.44l.87-.9ZM24.34,25.13c-4.72,4.32-11.95,4.32-16.67,0l-.87.87c5.21,4.8,13.23,4.8,18.44,0l-.89-.87Z"/></svg>