<svg width="32" height="32" viewBox="0 0 32 32" fill="none" xmlns="http://www.w3.org/2000/svg">
<path d="M0 16C0 7.16344 7.16344 0 16 0V0C24.8366 0 32 7.16344 32 16V16C32 24.8366 24.8366 32 16 32V32C7.16344 32 0 24.8366 0 16V16Z" fill="white"/>
<path d="M23.7294 15.9997C23.7294 11.7307 20.2687 8.27002 15.9997 8.27002C11.7307 8.27002 8.27002 11.7307 8.27002 15.9997C8.27002 20.2687 11.7307 23.7294 15.9997 23.7294C20.2687 23.7294 23.7294 20.2687 23.7294 15.9997Z" fill="#757677"/>
<path d="M23.7294 15.9997C23.7294 11.7307 20.2687 8.27002 15.9997 8.27002C11.7307 8.27002 8.27002 11.7307 8.27002 15.9997C8.27002 20.2687 11.7307 23.7294 15.9997 23.7294C20.2687 23.7294 23.7294 20.2687 23.7294 15.9997Z" stroke="#505152"/>
<path d="M15.6755 15.0365C15.408 15.0365 15.2155 14.969 15.0974 14.8334C14.9793 14.6946 14.9205 14.5121 14.9205 14.2865C14.9205 13.7865 15.2937 13.5365 16.0399 13.5365C16.7412 13.5365 17.4299 13.7577 17.8618 13.974L17.5918 14.244C17.3755 14.0821 16.6512 13.9109 16.0399 13.9109C15.7412 13.9109 15.5399 13.944 15.4355 14.0096C15.3349 14.0759 15.2843 14.1677 15.2843 14.2859C15.2843 14.404 15.3118 14.4959 15.3674 14.5621C15.423 14.6284 15.5255 14.6609 15.6749 14.6609H16.3205C16.7893 14.6609 17.2112 14.7409 17.5862 14.9002C17.9649 15.0602 18.2755 15.279 18.518 15.5565C18.7612 15.8309 18.9468 16.1484 19.0755 16.5096C19.2043 16.8671 19.268 17.2509 19.268 17.6602C19.268 17.9934 19.2212 18.3096 19.1274 18.6084C19.0337 18.9071 18.8912 19.1815 18.7005 19.4309C18.513 19.6809 18.2855 19.8977 18.0187 20.0821C17.7549 20.2627 17.4387 20.4034 17.0712 20.504C16.7068 20.6084 16.3105 20.6602 15.8837 20.6602C15.2137 20.6602 14.5849 20.5577 13.9987 20.3527C13.4155 20.1515 12.9293 19.8234 12.5405 19.4584L12.7568 19.2421C13.1112 19.5615 13.6393 19.8471 14.1705 20.0246C14.7049 20.1984 15.2762 20.2852 15.8837 20.2852C16.3593 20.2852 16.788 20.2177 17.1699 20.0821C17.5555 19.9434 17.8712 19.754 18.118 19.5146C18.368 19.2752 18.5587 18.9971 18.6912 18.6815C18.8268 18.3659 18.8943 18.0252 18.8943 17.6609C18.8943 17.1784 18.7968 16.7427 18.6024 16.354C18.408 15.9615 18.1112 15.644 17.7118 15.4009C17.3162 15.1577 16.8474 15.0365 16.3055 15.0365H15.6755ZM16.2693 15.4115C16.9743 15.4115 17.5243 15.6265 17.9199 16.0571C18.3193 16.4877 18.5187 17.0221 18.5187 17.6609C18.5187 18.2996 18.288 18.8484 17.8262 19.2752C17.3643 19.699 16.7168 19.9102 15.8837 19.9102C15.328 19.9102 14.8093 19.834 14.3268 19.6809C13.8443 19.5284 13.3462 19.2496 13.0268 18.9721L13.2968 18.7021C13.5818 18.9346 14.0574 19.214 14.488 19.3427C14.9218 19.4715 15.3874 19.5352 15.8837 19.5352C16.6162 19.5352 17.1755 19.3596 17.5605 19.009C17.9493 18.6584 18.1437 18.209 18.1437 17.6602C18.1437 17.1115 17.9805 16.6709 17.6543 16.3165C17.3312 15.9621 16.868 15.7852 16.2637 15.7852H15.6749C15.168 15.7852 14.788 15.6465 14.5343 15.3684C14.2805 15.0909 14.1543 14.7296 14.1543 14.2852C14.1543 13.8409 14.3105 13.4796 14.623 13.2021C14.9393 12.9246 15.4112 12.7852 16.0393 12.7852C16.4799 12.7852 16.8899 12.8371 17.268 12.9415C17.6462 13.0421 18.1305 13.2671 18.3774 13.4577L18.1074 13.7277C17.6737 13.429 16.8518 13.1596 16.0393 13.1596C15.5149 13.1596 15.1312 13.264 14.8887 13.4721C14.6493 13.6771 14.5293 13.9477 14.5293 14.2846C14.5293 14.6215 14.618 14.8971 14.7949 15.1021C14.9755 15.3071 15.2687 15.4096 15.6749 15.4096H16.2687L16.2693 15.4115ZM16.2487 16.1615C16.7555 16.1615 17.1355 16.3021 17.3893 16.5834C17.643 16.8646 17.7693 17.224 17.7693 17.6615C17.7693 18.099 17.6112 18.4671 17.2955 18.7446C16.983 19.0221 16.5124 19.1615 15.8843 19.1615C15.4437 19.1615 15.0318 19.1109 14.6499 19.0102C14.2712 18.9059 13.7605 18.6777 13.5137 18.4865L13.7837 18.2165C14.2174 18.5152 15.068 18.7865 15.8837 18.7865C16.408 18.7865 16.7899 18.684 17.0293 18.479C17.2724 18.2709 17.3937 17.9984 17.3937 17.6615C17.3937 17.3246 17.3037 17.054 17.123 16.849C16.9424 16.6409 16.6493 16.5365 16.243 16.5365H15.6755C14.9637 16.5365 14.4068 16.3246 14.0037 15.9015C13.6043 15.4746 13.4049 14.9365 13.4049 14.2871C13.4049 13.6377 13.6355 13.1015 14.0974 12.6777C14.5593 12.2509 15.2068 12.0371 16.0399 12.0371C16.5955 12.0371 17.1124 12.1134 17.5918 12.2665C18.0743 12.419 18.5993 12.6415 18.9187 12.9196L18.6487 13.1896C18.3637 12.9571 17.8612 12.7334 17.4305 12.6052C16.9999 12.4765 16.5368 12.4127 16.0399 12.4127C15.3074 12.4127 14.7468 12.5884 14.358 12.939C13.9724 13.2896 13.7799 13.739 13.7799 14.2877C13.7799 14.8365 13.943 15.2827 14.2693 15.6365C14.5955 15.9871 15.0643 16.1627 15.6755 16.1627H16.2487V16.1615ZM16.2487 16.9115C16.5162 16.9115 16.7087 16.9809 16.8268 17.1196C16.9449 17.2584 17.0037 17.439 17.0037 17.6609C17.0037 18.1609 16.6305 18.4109 15.8837 18.4109C15.1787 18.4109 14.3537 18.2077 13.9999 17.9996L14.2699 17.7296C14.513 17.8409 15.2693 18.0359 15.8837 18.0359C16.1824 18.0359 16.3818 18.0027 16.4824 17.9371C16.5868 17.8715 16.6387 17.779 16.6387 17.6609C16.6387 17.5427 16.6093 17.4559 16.5499 17.3902C16.4943 17.3209 16.3899 17.2859 16.2374 17.2859H15.6749C15.1955 17.2859 14.7618 17.2077 14.373 17.0515C13.9874 16.8952 13.6699 16.6802 13.4199 16.4059C13.1737 16.1315 12.9843 15.814 12.8524 15.4527C12.7205 15.0915 12.6543 14.7027 12.6543 14.2865C12.6543 13.9534 12.7012 13.6371 12.7949 13.3384C12.8887 13.0396 13.0293 12.7652 13.2168 12.5152C13.408 12.2652 13.6349 12.0502 13.8993 11.8696C14.1668 11.6859 14.4824 11.5434 14.8468 11.4427C15.2149 11.3384 15.6124 11.2865 16.0393 11.2865C16.7093 11.2865 17.3362 11.389 17.9193 11.594C18.5024 11.7952 19.0155 12.0677 19.4043 12.4321L19.1337 12.7021C18.7793 12.3827 18.278 12.1009 17.7468 11.9271C17.2155 11.7502 16.6462 11.6615 16.0387 11.6615C15.563 11.6615 15.1324 11.7309 14.7474 11.8696C14.3655 12.0052 14.0493 12.1927 13.7999 12.4321C13.5537 12.6715 13.3624 12.9496 13.2268 13.2652C13.0949 13.5815 13.0287 13.9215 13.0287 14.2859C13.0287 14.7752 13.1274 15.2165 13.3255 15.6084C13.5237 16.0009 13.8255 16.3165 14.2318 16.5559C14.638 16.7921 15.1187 16.9102 15.6743 16.9102H16.2474L16.2487 16.9115ZM16.6393 20.6015L16.4549 20.6277L16.2643 20.6465V21.8377H16.6393V20.6015ZM15.1393 21.8377H15.5143V20.6502L15.3324 20.6371L15.1393 20.6171V21.8384V21.8377ZM16.6393 10.1621H16.2643V11.2896L16.4324 11.2977L16.6393 11.3159V10.1627V10.1621ZM15.1393 11.3727L15.3093 11.3421L15.5143 11.3146V10.1621H15.1393V11.3727Z" fill="#FDF7EF"/>
<path fill-rule="evenodd" clip-rule="evenodd" d="M11.8545 3.38381C13.345 2.89389 14.938 2.66989 16.5159 2.73037C18.0941 2.79085 19.6577 3.13613 21.1127 3.74413C22.5681 4.35213 23.9149 5.22317 25.0673 6.29773C26.5914 7.71949 27.7748 9.49773 28.4845 11.4868C29.1946 13.4763 29.4311 15.6766 29.1572 17.7713C28.8836 19.866 28.0996 21.8555 26.9137 23.5662C25.7277 25.2769 24.1396 26.7086 22.2743 27.7006C20.409 28.6923 18.266 29.244 16.1537 29.276C14.0413 29.308 11.9594 28.8206 10.0948 27.8952C8.23047 26.9697 6.58311 25.6065 5.33223 23.9038C4.08135 22.2011 3.22695 20.1588 2.88775 18.075C2.54855 15.9908 2.72455 13.8648 3.37447 11.8814C3.86567 10.3819 4.62791 8.96429 5.60455 7.73581H4.12007V5.28205H9.93671V10.7137H7.48295V9.22957C6.68295 10.2356 6.05831 11.3969 5.65607 12.6257C5.12391 14.2513 4.98055 15.9953 5.25607 17.6971C5.59847 19.8139 6.58855 21.8651 8.06631 23.4459C9.83399 25.3364 12.2993 26.5544 14.8657 26.8209C17.4317 27.0875 20.0989 26.403 22.217 24.9288C24.3351 23.4545 25.9047 21.1905 26.5418 18.69C27.1789 16.1896 26.8836 13.4526 25.7348 11.1422C24.586 8.83181 22.5834 6.94861 20.1889 5.95917C17.7943 4.96941 15.0074 4.87405 12.6036 5.66381L11.8545 3.38381Z" fill="#0657F9"/>
</svg>
