<?xml version="1.0" encoding="UTF-8"?><svg id="a" xmlns="http://www.w3.org/2000/svg" viewBox="0 0 32 32"><defs><style>.b{fill:#54ae94;}.b,.c{fill-rule:evenodd;}.c{fill:#fff;}</style></defs><path class="b" d="M32,16c0-2.09-.42-4.19-1.22-6.12-.8-1.93-1.99-3.71-3.47-5.19-1.48-1.48-3.26-2.67-5.19-3.47-1.93-.8-4.03-1.22-6.12-1.22s-4.19.42-6.12,1.22c-1.93.8-3.71,1.99-5.19,3.47-1.48,1.48-2.67,3.26-3.47,5.19-.8,1.93-1.22,4.03-1.22,6.12s.42,4.19,1.22,6.12c.8,1.93,1.99,3.71,3.47,5.19,1.48,1.48,3.26,2.67,5.19,3.47,1.93.8,4.03,1.22,6.12,1.22s4.19-.42,6.12-1.22c1.93-.8,3.71-1.99,5.19-3.47,1.48-1.48,2.67-3.26,3.47-5.19.8-1.93,1.22-4.03,1.22-6.12Z"/><path class="c" d="M23.78,8v3.57h-5.42v2.01h.02c2.22.1,4.16.37,5.57.75.71.19,1.28.4,1.7.66.21.13.39.27.52.43.13.17.22.37.22.58s-.09.42-.22.58c-.13.17-.31.3-.52.43-.42.26-1,.47-1.7.66-1.41.38-3.36.65-5.57.75h-.02v7.17h-3.92v-7.17h-.02c-2.22-.1-4.16-.37-5.57-.75-.71-.19-1.28-.4-1.7-.66-.21-.13-.39-.27-.52-.43-.13-.17-.22-.37-.22-.58s.09-.42.22-.58c.13-.17.31-.3.52-.43.42-.26,1-.47,1.7-.66,1.41-.38,3.36-.65,5.57-.75h.02v-2.01h-5.42v-3.57h14.76ZM18.36,14.37v2.01h-.04c-.05,0-.23.02-.55.04-.16,0-.36.01-.59.02-.12,0-.24,0-.38,0-.07,0-.14,0-.21,0h-.51s-.1,0-.1,0c-.14,0-.26,0-.38,0-.23,0-.43-.01-.59-.02-.32-.01-.5-.03-.55-.03h-.04v-2.01c-1.93.09-3.61.3-4.8.58-.6.14-1.07.3-1.38.47-.15.08-.27.17-.33.24-.07.07-.08.12-.08.17s.02.1.08.17c.07.07.18.16.33.24.31.16.78.33,1.38.47,1.19.28,2.88.49,4.81.58h0l1.95.04,1.95-.04c1.93-.09,3.62-.3,4.81-.58.6-.14,1.07-.3,1.38-.47.15-.08.27-.17.33-.24.07-.07.08-.12.08-.17s-.02-.1-.08-.17c-.07-.07-.18-.16-.33-.24-.31-.16-.78-.33-1.38-.47-1.19-.28-2.87-.49-4.8-.58h0Z"/></svg>