<svg width="32" height="32" viewBox="0 0 32 32" fill="none" xmlns="http://www.w3.org/2000/svg">
<path d="M0 16C0 7.16344 7.16344 0 16 0C24.8366 0 32 7.16344 32 16C32 24.8366 24.8366 32 16 32C7.16344 32 0 24.8366 0 16Z" fill="white"/>
<path fill-rule="evenodd" clip-rule="evenodd" d="M28 16C28 9.37864 22.6214 4 16 4C9.37864 4 4 9.37864 4 16C4 22.6214 9.37864 28 16 28C22.6214 28 28 22.6214 28 16Z" fill="white"/>
<path fill-rule="evenodd" clip-rule="evenodd" d="M11.4822 13.9842L15.9999 7.05664V11.3934L11.4822 13.9842ZM10.6096 15.3131C10.6571 15.2399 10.7048 15.1667 10.7526 15.0935L15.994 24.9438C14.3588 24.9433 12.7235 24.3323 11.4762 23.11C9.35604 21.0323 8.9958 17.7897 10.6096 15.3131Z" fill="#BDBDBF"/>
<path fill-rule="evenodd" clip-rule="evenodd" d="M20.5178 13.9842L16 7.05664V11.3934L20.5178 13.9842ZM11.4823 13.9838L16 11.4006V16.564L11.4823 13.9838ZM10.7529 15.0935L16.0001 18.087V24.9438L10.7529 15.0935ZM21.2474 15.0935C21.2952 15.1667 21.3429 15.2399 21.3904 15.3131C23.0042 17.7897 22.644 21.0323 20.5238 23.11C19.2765 24.3323 17.6412 24.9433 16.006 24.9438L21.2474 15.0935Z" fill="#99999E"/>
<path fill-rule="evenodd" clip-rule="evenodd" d="M20.5178 13.9835L16 11.4004V16.5638L20.5178 13.9835ZM21.2471 15.0933L16 18.0868V24.9436L21.2471 15.0933Z" fill="#68686D"/>
<path fill-rule="evenodd" clip-rule="evenodd" d="M11.8545 3.38381C13.345 2.89389 14.938 2.66989 16.5159 2.73037C18.0941 2.79085 19.6577 3.13613 21.1127 3.74413C22.5681 4.35213 23.9149 5.22317 25.0673 6.29773C26.5914 7.71949 27.7748 9.49773 28.4845 11.4868C29.1946 13.4763 29.4311 15.6766 29.1572 17.7713C28.8836 19.866 28.0996 21.8555 26.9137 23.5662C25.7277 25.2769 24.1396 26.7086 22.2743 27.7006C20.409 28.6923 18.266 29.244 16.1537 29.276C14.0413 29.308 11.9594 28.8206 10.0948 27.8952C8.23047 26.9697 6.58311 25.6065 5.33223 23.9038C4.08135 22.2011 3.22695 20.1588 2.88775 18.075C2.54855 15.9908 2.72455 13.8648 3.37447 11.8814C3.86567 10.3819 4.62791 8.96429 5.60455 7.73581H4.12007V5.28205H9.93671V10.7137H7.48295V9.22957C6.68295 10.2356 6.05831 11.3969 5.65607 12.6257C5.12391 14.2513 4.98055 15.9953 5.25607 17.6971C5.59847 19.8139 6.58855 21.8651 8.06631 23.4459C9.83399 25.3364 12.2993 26.5544 14.8657 26.8209C17.4317 27.0875 20.0989 26.403 22.217 24.9288C24.3351 23.4545 25.9047 21.1905 26.5418 18.69C27.1789 16.1896 26.8836 13.4526 25.7348 11.1422C24.586 8.83181 22.5834 6.94861 20.1889 5.95917C17.7943 4.96941 15.0074 4.87405 12.6036 5.66381L11.8545 3.38381Z" fill="#0657F9"/>
</svg>
