<svg width="32" height="32" viewBox="0 0 32 32" fill="none" xmlns="http://www.w3.org/2000/svg">
<path d="M0 16C0 7.16344 7.16344 0 16 0V0C24.8366 0 32 7.16344 32 16V16C32 24.8366 24.8366 32 16 32V32C7.16344 32 0 24.8366 0 16V16Z" fill="white"/>
<circle cx="16" cy="16" r="9" fill="white"/>
<path fill-rule="evenodd" clip-rule="evenodd" d="M7 15.9995C6.9997 20.9696 11.0282 24.9991 15.9984 25C18.3859 25.0004 20.6757 24.0522 22.364 22.364C24.0522 20.6757 25.0004 18.3859 25 15.9984C24.9991 11.0282 20.9696 6.9997 15.9995 7C11.0293 7.0003 7.0003 11.0293 7 15.9995ZM7.7117 15.9983C7.70988 11.4194 11.4194 7.70545 15.9984 7.70181C18.1996 7.70006 20.3112 8.57349 21.868 10.1297C23.4248 11.6859 24.2991 13.7971 24.2982 15.9984C24.2964 20.5773 20.5839 24.2883 16.0049 24.2883C11.426 24.2883 7.71352 20.5773 7.7117 15.9983Z" fill="black"/>
<path fill-rule="evenodd" clip-rule="evenodd" d="M20.4783 11.0902C17.9446 8.77236 14.0616 8.77236 11.5279 11.0902L11.0486 10.6216C13.8445 8.04281 18.1508 8.04281 20.9467 10.6216L20.4783 11.0902ZM20.9108 11.5183L21.3793 11.0496V11.0387C23.9569 13.8358 23.9569 18.1439 21.3793 20.9411L20.9108 20.4724C23.2277 17.9377 23.2277 14.053 20.9108 11.5183ZM11.0892 20.4771C8.77517 17.943 8.77517 14.0616 11.0892 11.5276L10.6207 11.059C8.04309 13.8561 8.04309 18.1642 10.6207 20.9613L11.0892 20.4771ZM11.5217 20.9098C14.0554 23.2276 17.9384 23.2276 20.472 20.9098L20.9514 21.3784C18.1555 23.9572 13.8492 23.9572 11.0533 21.3784L11.5217 20.9098Z" fill="#99999E"/>
<path fill-rule="evenodd" clip-rule="evenodd" d="M19.3441 13.662C19.2299 12.4942 18.2028 12.1025 16.9036 11.9831V10.375H15.8992V11.9532H15.0965V10.375H14.0997V11.9943H12.0625V13.0483C12.0625 13.0483 12.8044 13.0352 12.7929 13.0483C13.071 13.0183 13.3233 13.2096 13.3636 13.4811V17.9135C13.3578 18.0066 13.3139 18.0934 13.2419 18.1542C13.1711 18.2161 13.0777 18.2471 12.9832 18.24C12.9965 18.2512 12.2527 18.24 12.2527 18.24L12.0625 19.4171H14.0807V21.0625H15.0851V19.4414H15.8878V21.055H16.8941V19.4283C18.5908 19.3276 19.774 18.9172 19.9223 17.3595C20.0422 16.1058 19.4411 15.5462 18.4805 15.3205C19.0645 15.0388 19.4259 14.5164 19.3441 13.662ZM17.9365 17.1655C17.9365 18.2889 16.1346 18.2631 15.3123 18.2513C15.2389 18.2503 15.1732 18.2493 15.1174 18.2493V16.0779C15.1871 16.0781 15.2721 16.0762 15.3685 16.0741L15.3686 16.0741C16.2139 16.0558 17.9365 16.0184 17.9365 17.1655ZM15.2903 15.0913C15.9794 15.1033 17.4704 15.1292 17.4704 14.106C17.4704 13.0569 16.0258 13.0938 15.3234 13.1117C15.2451 13.1137 15.1761 13.1154 15.1193 13.1154V15.0891C15.168 15.0891 15.2256 15.0901 15.2903 15.0913Z" fill="black"/>
<path fill-rule="evenodd" clip-rule="evenodd" d="M11.8545 3.38381C13.345 2.89389 14.938 2.66989 16.5159 2.73037C18.0941 2.79085 19.6577 3.13613 21.1127 3.74413C22.5681 4.35213 23.9149 5.22317 25.0673 6.29773C26.5914 7.71949 27.7748 9.49773 28.4845 11.4868C29.1946 13.4763 29.4311 15.6766 29.1572 17.7713C28.8836 19.866 28.0996 21.8555 26.9137 23.5662C25.7277 25.2769 24.1396 26.7086 22.2743 27.7006C20.409 28.6923 18.266 29.244 16.1537 29.276C14.0413 29.308 11.9594 28.8206 10.0948 27.8952C8.23047 26.9697 6.58311 25.6065 5.33223 23.9038C4.08135 22.2011 3.22695 20.1588 2.88775 18.075C2.54855 15.9908 2.72455 13.8648 3.37447 11.8814C3.86567 10.3819 4.62791 8.96429 5.60455 7.73581H4.12007V5.28205H9.93671V10.7137H7.48295V9.22957C6.68295 10.2356 6.05831 11.3969 5.65607 12.6257C5.12391 14.2513 4.98055 15.9953 5.25607 17.6971C5.59847 19.8139 6.58855 21.8651 8.06631 23.4459C9.83399 25.3364 12.2993 26.5544 14.8657 26.8209C17.4317 27.0875 20.0989 26.403 22.217 24.9288C24.3351 23.4545 25.9047 21.1905 26.5418 18.69C27.1789 16.1896 26.8836 13.4526 25.7348 11.1422C24.586 8.83181 22.5834 6.94861 20.1889 5.95917C17.7943 4.96941 15.0074 4.87405 12.6036 5.66381L11.8545 3.38381Z" fill="#0657F9"/>
</svg>
