<svg width="800" height="800" viewBox="0 0 800 800" fill="none" xmlns="http://www.w3.org/2000/svg">
<rect width="800" height="800" rx="400" fill="url(#paint0_linear_27894_97983)"/>
<path d="M660.002 388.744C654.513 258.698 554.364 153.257 426.986 140.13C412.206 138.598 400.125 150.85 400.125 165.777V237.845C400.125 252.773 412.287 264.592 426.86 267.538C476.875 277.671 516.845 315.655 530.026 364.688C535.36 362.856 541.431 361.74 548.448 361.712C572.658 361.827 585.72 375.263 595.897 386.127C605.415 396.152 613.01 404.025 628.931 404.259C643.759 404.281 651.348 397.56 660.002 388.744Z" fill="#366FFF"/>
<path d="M285.077 165.624C301.486 157.489 319.396 170.443 319.396 188.821V362.425C295.168 362.595 282.245 375.77 272.031 386.483L271.817 386.702C262.281 396.5 254.706 404.283 238.753 404.259C222.831 404.025 215.237 396.152 205.719 386.127C195.542 375.263 182.48 361.827 158.27 361.712C152.377 361.735 147.152 362.526 142.47 363.864C154.485 276.64 209.374 203.176 285.077 165.624Z" fill="#366FFF"/>
<path d="M426.984 659.872C412.204 661.394 400.123 649.152 400.123 634.224V562.156C400.123 547.237 412.285 535.409 426.858 532.464C488.354 520.004 534.664 465.439 534.664 400.001C534.664 399.406 534.661 398.813 534.653 398.22C538.559 396.637 543.031 395.734 548.48 395.742C564.401 395.977 571.996 403.849 581.514 413.874C591.691 424.739 604.753 438.174 628.963 438.289C641.416 438.24 650.891 434.762 658.548 429.939C644.764 551.283 548.204 647.38 426.984 659.872Z" fill="#004FA5"/>
<path d="M140 400.45C140.172 503.065 199.245 591.802 285.075 634.377C301.484 642.512 319.394 629.558 319.394 611.18V396.454C303.605 396.509 296.059 404.263 286.571 414.011L286.357 414.231C276.114 424.974 263.147 438.193 238.785 438.289C214.575 438.174 201.513 424.739 191.336 413.874C181.818 403.849 174.223 395.977 158.302 395.742C150.656 395.731 144.935 397.512 140 400.45Z" fill="#004FA5"/>
<defs>
<linearGradient id="paint0_linear_27894_97983" x1="400" y1="0" x2="400" y2="800" gradientUnits="userSpaceOnUse">
<stop stop-color="white"/>
<stop offset="1" stop-color="#F1F5F9"/>
</linearGradient>
</defs>
</svg>
