<?xml version="1.0" encoding="UTF-8"?><svg id="a" xmlns="http://www.w3.org/2000/svg" viewBox="0 0 32 32"><defs><style>.b{fill:#fff;}.b,.c{fill-rule:evenodd;}.c{fill:#62688f;}</style></defs><path class="c" d="M32,16c0-2.09-.42-4.19-1.22-6.12-.8-1.93-1.99-3.71-3.47-5.19-1.48-1.48-3.26-2.67-5.19-3.47-1.93-.8-4.03-1.22-6.12-1.22s-4.19.42-6.12,1.22c-1.93.8-3.71,1.99-5.19,3.47-1.48,1.48-2.67,3.26-3.47,5.19-.8,1.93-1.22,4.03-1.22,6.12s.42,4.19,1.22,6.12c.8,1.93,1.99,3.71,3.47,5.19,1.48,1.48,3.26,2.67,5.19,3.47,1.93.8,4.03,1.22,6.12,1.22s4.19-.42,6.12-1.22c1.93-.8,3.71-1.99,5.19-3.47,1.48-1.48,2.67-3.26,3.47-5.19.8-1.93,1.22-4.03,1.22-6.12Z"/><polygon class="b" points="16.19 4.67 9.33 15.93 16.19 19.94 23.04 15.93 16.19 4.67"/><polygon class="b" points="9.33 17.22 16.19 26.78 23.05 17.22 16.19 21.23 9.33 17.22"/></svg>