<?xml version="1.0" encoding="UTF-8"?><svg id="a" xmlns="http://www.w3.org/2000/svg" xmlns:xlink="http://www.w3.org/1999/xlink" viewBox="0 0 1000 1000"><defs><style>.f{fill:#fff;}.g{fill:url(#c);}</style><radialGradient id="c" cx="877.15" cy="1076.9" fx="877.15" fy="1076.9" r="2.07" gradientTransform="translate(834427.73 680405.16) rotate(-90) scale(774.38 -774.38)" gradientUnits="userSpaceOnUse"><stop offset="0" stop-color="#ffd232"/><stop offset="1" stop-color="#ff6d6d"/></radialGradient></defs><g id="b"><circle id="d" class="g" cx="500" cy="500" r="500"/><path id="e" class="f" d="M308.78,631.45h-71.15c5.81,111.09,98.74,207.65,263.56,207.65s268.64-90.03,268.64-206.2c0-220.72-333.26-208.38-333.26-336.16,0-35.58,26.86-77.69,89.3-77.69,69.7,0,151.75,54.46,157.56,124.16h70.43c-7.26-112.54-116.9-190.95-256.3-190.95s-253.39,84.22-253.39,203.3c0,227.26,333.26,197.49,333.26,337.62,0,43.56-26.86,79.87-94.39,79.87-84.22,0-169.17-58.81-174.25-141.58h0ZM368.31,313.44c0,172.8,330.36,138.68,330.36,323.1,0,55.18-36.3,103.83-79.87,116.17,15.25-14.52,26.86-46.47,26.86-76.96,0-170.62-331.08-147.39-331.08-322.37,0-58.81,37.76-106.01,84.95-120.53-18.15,21.78-31.22,50.1-31.22,80.59h0Z"/></g></svg>