<?xml version="1.0" encoding="UTF-8"?><svg id="a" xmlns="http://www.w3.org/2000/svg" viewBox="0 0 32 32"><defs><style>.b{fill:#fff;}.b,.c{fill-rule:evenodd;}.c{fill:#2775ca;}</style></defs><path class="c" d="M32,16c0-2.09-.42-4.19-1.22-6.12-.8-1.93-1.99-3.71-3.47-5.19-1.48-1.48-3.26-2.67-5.19-3.47-1.93-.8-4.03-1.22-6.12-1.22s-4.19.42-6.12,1.22c-1.93.8-3.71,1.99-5.19,3.47-1.48,1.48-2.67,3.26-3.47,5.19-.8,1.93-1.22,4.03-1.22,6.12s.42,4.19,1.22,6.12c.8,1.93,1.99,3.71,3.47,5.19,1.48,1.48,3.26,2.67,5.19,3.47,1.93.8,4.03,1.22,6.12,1.22s4.19-.42,6.12-1.22c1.93-.8,3.71-1.99,5.19-3.47,1.48-1.48,2.67-3.26,3.47-5.19.8-1.93,1.22-4.03,1.22-6.12Z"/><path class="b" d="M13.07,27.08c0,.39-.27.52-.67.52-4.94-1.58-8.4-6.07-8.4-11.35S7.46,6.48,12.4,4.9c.4-.13.67.13.67.53v.92c0,.27-.14.53-.4.66-3.87,1.45-6.54,5.02-6.54,9.24s2.8,7.92,6.54,9.24c.26.13.4.4.4.66v.93Z"/><path class="b" d="M17.07,23.78c0,.26-.27.52-.54.52h-1.07c-.26,0-.54-.26-.54-.52v-1.59c-2.13-.26-3.19-1.45-3.6-3.17,0-.26.13-.52.4-.52h1.19c.27,0,.4.13.54.39.27.93.8,1.72,2.54,1.72,1.33,0,2.26-.66,2.26-1.72s-.53-1.45-2.39-1.71c-2.8-.39-4.13-1.19-4.13-3.44,0-1.71,1.33-3.03,3.19-3.3v-1.58c0-.26.27-.53.54-.53h1.07c.26,0,.54.27.54.53v1.58c1.6.27,2.67,1.19,2.93,2.64,0,.27-.13.53-.4.53h-1.06c-.27,0-.4-.13-.54-.39-.26-.93-.93-1.32-2.13-1.32-1.33,0-2,.66-2,1.58s.39,1.45,2.39,1.72c2.81.38,4.14,1.18,4.14,3.43,0,1.71-1.33,3.17-3.33,3.56v1.59Z"/><path class="b" d="M19.6,27.61c-.39.14-.67-.13-.67-.52v-.93c0-.26.14-.53.4-.66,3.87-1.45,6.54-5.01,6.54-9.24s-2.8-7.92-6.54-9.24c-.26-.13-.4-.39-.4-.66v-.92c0-.4.27-.53.67-.53,4.81,1.58,8.4,6.07,8.4,11.35s-3.46,9.77-8.4,11.35Z"/></svg>