<svg width="141" height="141" viewBox="0 0 141 141" fill="none" xmlns="http://www.w3.org/2000/svg">
<g clip-path="url(#clip0_685_265135)">
<mask id="mask0_685_265135" style="mask-type:luminance" maskUnits="userSpaceOnUse" x="0" y="0" width="141" height="141">
<path d="M0.0732422 0.0969238H140.925V140.949H0.0732422V0.0969238Z" fill="white"/>
</mask>
<g mask="url(#mask0_685_265135)">
<path d="M70.4992 0.0969238C109.409 0.0969238 140.924 31.6129 140.924 70.5229C140.924 109.433 109.409 140.949 70.4992 140.949C31.5892 140.949 0.0732422 109.433 0.0732422 70.5229C0.0732422 31.6129 31.5882 0.0969238 70.4992 0.0969238Z" fill="#062819"/>
<path d="M96.8642 47.2769L86.2122 58.6769C88.7222 61.9779 90.2182 66.0719 90.2182 70.5169C90.2182 81.3889 81.3712 90.2369 70.4982 90.2369C59.6272 90.2369 50.7792 81.3889 50.7792 70.5169C50.7792 66.1159 52.2762 62.1099 54.6972 58.8529L44.0002 47.4099C38.5862 53.6159 35.2852 61.6269 35.2852 70.5179C35.2852 89.9739 51.0422 105.731 70.4982 105.731C89.9532 105.731 105.711 89.9729 105.711 70.5179C105.711 61.5829 102.365 53.4839 96.8632 47.2779L96.8642 47.2769Z" fill="#FAFDF0"/>
<path d="M71.0735 60.0069L95.8545 33.5099L87.7555 25.2349L70.5015 43.6779L53.2025 25.2349L45.1035 33.4659L69.9305 60.0069C68.5655 64.8049 64.7805 68.6339 59.9385 69.9989V71.1429C64.7365 72.5079 68.5655 76.2929 69.9305 81.1349H71.0745C72.4395 76.3369 76.2245 72.5079 81.0665 71.1429V69.9999C76.2685 68.6349 72.4395 64.8499 71.0745 60.0079L71.0735 60.0069Z" fill="#FAFDF0"/>
</g>
</g>
<defs>
<clipPath id="clip0_685_265135">
<rect width="141" height="141" fill="white"/>
</clipPath>
</defs>
</svg>
